<svg width="500" height="300" viewBox="0 0 500 300" fill="none" xmlns="http://www.w3.org/2000/svg">
<rect width="500" height="300" fill="#1E1E1E"/>
<rect width="500" height="300" fill="#1F2533"/>
<rect x="126" y="170" width="31.25" height="50" fill="#5F29CC"/>
<rect x="157" y="170" width="31.25" height="50" fill="#3377FF"/>
<rect x="188" y="170" width="31.25" height="50" fill="#29CCCC"/>
<rect x="219" y="170" width="31.25" height="50" fill="#29CC96"/>
<rect x="250" y="170" width="31.25" height="50" fill="#CC297A"/>
<rect x="281" y="170" width="31.25" height="50" fill="#CC2944"/>
<rect x="312" y="170" width="31.25" height="50" fill="#CC6D29"/>
<rect x="343" y="170" width="31.25" height="50" fill="#CCBE29"/>
<path d="M125.209 101.232H116.178C115.92 99.7505 115.445 98.4384 114.753 97.2955C114.061 96.1364 113.199 95.1544 112.169 94.3494C111.139 93.5445 109.964 92.9408 108.643 92.5384C107.339 92.1198 105.931 91.9105 104.418 91.9105C101.729 91.9105 99.3466 92.5866 97.2699 93.9389C95.1932 95.2751 93.5672 97.2391 92.392 99.831C91.2169 102.407 90.6293 105.554 90.6293 109.273C90.6293 113.056 91.2169 116.243 92.392 118.835C93.5833 121.411 95.2093 123.359 97.2699 124.679C99.3466 125.983 101.721 126.635 104.393 126.635C105.875 126.635 107.259 126.442 108.547 126.055C109.851 125.653 111.018 125.065 112.048 124.293C113.095 123.52 113.972 122.57 114.68 121.443C115.405 120.316 115.904 119.028 116.178 117.58L125.209 117.628C124.871 119.978 124.138 122.184 123.011 124.244C121.901 126.305 120.444 128.124 118.641 129.702C116.838 131.263 114.729 132.487 112.314 133.372C109.899 134.241 107.219 134.676 104.273 134.676C99.9261 134.676 96.0464 133.67 92.6335 131.658C89.2206 129.645 86.5322 126.74 84.5682 122.94C82.6042 119.141 81.6222 114.585 81.6222 109.273C81.6222 103.944 82.6122 99.3883 84.5923 95.6051C86.5724 91.8059 89.2689 88.9001 92.6818 86.8878C96.0947 84.8755 99.9583 83.8693 104.273 83.8693C107.026 83.8693 109.585 84.2557 111.952 85.0284C114.318 85.8011 116.427 86.9361 118.278 88.4332C120.13 89.9143 121.651 91.7334 122.842 93.8906C124.05 96.0317 124.839 98.4787 125.209 101.232ZM149.206 134.724C145.583 134.724 142.444 133.928 139.788 132.334C137.132 130.74 135.071 128.51 133.606 125.645C132.157 122.779 131.433 119.431 131.433 115.599C131.433 111.768 132.157 108.411 133.606 105.53C135.071 102.648 137.132 100.411 139.788 98.8168C142.444 97.223 145.583 96.4261 149.206 96.4261C152.828 96.4261 155.967 97.223 158.623 98.8168C161.279 100.411 163.332 102.648 164.781 105.53C166.246 108.411 166.978 111.768 166.978 115.599C166.978 119.431 166.246 122.779 164.781 125.645C163.332 128.51 161.279 130.74 158.623 132.334C155.967 133.928 152.828 134.724 149.206 134.724ZM149.254 127.722C151.218 127.722 152.86 127.182 154.18 126.104C155.5 125.009 156.482 123.544 157.126 121.709C157.786 119.874 158.116 117.829 158.116 115.575C158.116 113.305 157.786 111.253 157.126 109.418C156.482 107.566 155.5 106.093 154.18 104.999C152.86 103.904 151.218 103.357 149.254 103.357C147.242 103.357 145.567 103.904 144.231 104.999C142.911 106.093 141.921 107.566 141.261 109.418C140.617 111.253 140.295 113.305 140.295 115.575C140.295 117.829 140.617 119.874 141.261 121.709C141.921 123.544 142.911 125.009 144.231 126.104C145.567 127.182 147.242 127.722 149.254 127.722ZM183.139 112.267V134H174.398V96.9091H182.753V103.212H183.188C184.041 101.135 185.401 99.4848 187.268 98.2614C189.152 97.0379 191.478 96.4261 194.247 96.4261C196.807 96.4261 199.036 96.9735 200.936 98.0682C202.852 99.1629 204.333 100.749 205.379 102.825C206.442 104.902 206.965 107.421 206.949 110.384V134H198.207V111.736C198.207 109.257 197.563 107.317 196.276 105.916C195.004 104.516 193.241 103.815 190.987 103.815C189.458 103.815 188.098 104.153 186.906 104.83C185.731 105.49 184.805 106.447 184.129 107.703C183.469 108.959 183.139 110.48 183.139 112.267ZM234.357 96.9091V103.67H213.034V96.9091H234.357ZM218.298 88.0227H227.04V122.844C227.04 124.019 227.217 124.92 227.571 125.548C227.941 126.16 228.424 126.579 229.02 126.804C229.616 127.029 230.276 127.142 231 127.142C231.547 127.142 232.046 127.102 232.497 127.021C232.964 126.941 233.318 126.868 233.56 126.804L235.033 133.638C234.566 133.799 233.898 133.976 233.028 134.169C232.175 134.362 231.129 134.475 229.889 134.507C227.7 134.571 225.728 134.241 223.973 133.517C222.218 132.777 220.826 131.634 219.795 130.088C218.781 128.543 218.282 126.611 218.298 124.293V88.0227ZM241.667 134V96.9091H250.409V134H241.667ZM246.062 91.6449C244.678 91.6449 243.486 91.1861 242.488 90.2685C241.49 89.3348 240.991 88.2159 240.991 86.9119C240.991 85.5919 241.49 84.473 242.488 83.5554C243.486 82.6217 244.678 82.1548 246.062 82.1548C247.463 82.1548 248.654 82.6217 249.636 83.5554C250.634 84.473 251.133 85.5919 251.133 86.9119C251.133 88.2159 250.634 89.3348 249.636 90.2685C248.654 91.1861 247.463 91.6449 246.062 91.6449ZM268.139 112.267V134H259.398V96.9091H267.753V103.212H268.188C269.041 101.135 270.401 99.4848 272.268 98.2614C274.152 97.0379 276.478 96.4261 279.247 96.4261C281.807 96.4261 284.036 96.9735 285.936 98.0682C287.852 99.1629 289.333 100.749 290.379 102.825C291.442 104.902 291.965 107.421 291.949 110.384V134H283.207V111.736C283.207 109.257 282.563 107.317 281.276 105.916C280.004 104.516 278.241 103.815 275.987 103.815C274.458 103.815 273.098 104.153 271.906 104.83C270.731 105.49 269.805 106.447 269.129 107.703C268.469 108.959 268.139 110.48 268.139 112.267ZM324.476 118.401V96.9091H333.217V134H324.741V127.408H324.355C323.518 129.484 322.142 131.183 320.226 132.503C318.326 133.823 315.984 134.483 313.199 134.483C310.768 134.483 308.619 133.944 306.751 132.865C304.9 131.77 303.451 130.185 302.405 128.108C301.358 126.015 300.835 123.488 300.835 120.526V96.9091H309.577V119.173C309.577 121.524 310.221 123.391 311.509 124.776C312.796 126.16 314.487 126.852 316.58 126.852C317.867 126.852 319.115 126.538 320.322 125.911C321.53 125.283 322.52 124.349 323.293 123.109C324.081 121.854 324.476 120.284 324.476 118.401ZM342.206 134V96.9091H350.948V134H342.206ZM346.601 91.6449C345.217 91.6449 344.025 91.1861 343.027 90.2685C342.029 89.3348 341.53 88.2159 341.53 86.9119C341.53 85.5919 342.029 84.473 343.027 83.5554C344.025 82.6217 345.217 82.1548 346.601 82.1548C348.002 82.1548 349.193 82.6217 350.175 83.5554C351.173 84.473 351.672 85.5919 351.672 86.9119C351.672 88.2159 351.173 89.3348 350.175 90.2685C349.193 91.1861 348.002 91.6449 346.601 91.6449ZM378.458 96.9091V103.67H357.136V96.9091H378.458ZM362.4 88.0227H371.141V122.844C371.141 124.019 371.318 124.92 371.673 125.548C372.043 126.16 372.526 126.579 373.121 126.804C373.717 127.029 374.377 127.142 375.102 127.142C375.649 127.142 376.148 127.102 376.599 127.021C377.066 126.941 377.42 126.868 377.661 126.804L379.134 133.638C378.667 133.799 377.999 133.976 377.13 134.169C376.277 134.362 375.23 134.475 373.991 134.507C371.801 134.571 369.829 134.241 368.075 133.517C366.32 132.777 364.927 131.634 363.897 130.088C362.883 128.543 362.384 126.611 362.4 124.293V88.0227ZM391.202 147.909C390.011 147.909 388.908 147.813 387.894 147.619C386.896 147.442 386.099 147.233 385.503 146.991L387.532 140.182C388.803 140.552 389.938 140.729 390.936 140.713C391.935 140.697 392.812 140.383 393.569 139.771C394.341 139.176 394.993 138.178 395.525 136.777L396.273 134.773L382.823 96.9091H392.096L400.644 124.92H401.03L409.603 96.9091H418.9L404.049 138.491C403.356 140.455 402.439 142.138 401.296 143.538C400.153 144.955 398.752 146.034 397.094 146.774C395.452 147.531 393.488 147.909 391.202 147.909Z" fill="white"/>
</svg>
